solid OpenSCAD_Model
  facet normal -0.6343932841636445 -0.7730104533627378 -8.530653689077567e-19
    outer loop
      vertex -14.405570233019603 -4.1814696123025445 0
      vertex -14.557106781186548 -4.0571067811865476 1.2
      vertex -14.557106781186548 -4.0571067811865476 0
    endloop
  endfacet
  facet normal -0.2902846772544611 -0.9569403357322092 0
    outer loop
      vertex -14.23268343236509 -4.273879532511287 0
      vertex -14.045090322016128 -4.33078528040323 0
      vertex -14.23268343236509 -4.273879532511287 1.2
    endloop
  endfacet
  facet normal -0.09801714032956085 -0.9951847266721969 0
    outer loop
      vertex -14.045090322016128 -4.33078528040323 0
      vertex -13.85 -4.35 0
      vertex -14.045090322016128 -4.33078528040323 1.2
    endloop
  endfacet
  facet normal -0.47139673682599764 -0.881921264348355 0
    outer loop
      vertex -14.405570233019603 -4.1814696123025445 0
      vertex -14.23268343236509 -4.273879532511287 0
      vertex -14.405570233019603 -4.1814696123025445 1.2
    endloop
  endfacet
  facet normal -0.7730104533627397 -0.6343932841636422 1.5526348423559025e-18
    outer loop
      vertex -14.557106781186548 -4.0571067811865476 0
      vertex -14.681469612302545 -3.905570233019602 1.2
      vertex -14.681469612302545 -3.905570233019602 0
    endloop
  endfacet
  facet normal -0.8819212643483559 -0.47139673682599603 -4.956636405845545e-18
    outer loop
      vertex -14.681469612302545 -3.905570233019602 0
      vertex -14.773879532511286 -3.7326834323650893 1.2
      vertex -14.773879532511286 -3.7326834323650893 0
    endloop
  endfacet
  facet normal -0.9569403357322077 -0.2902846772544659 2.4143463782532686e-19
    outer loop
      vertex -14.773879532511286 -3.7326834323650893 0
      vertex -14.83078528040323 -3.545090322016128 1.2
      vertex -14.83078528040323 -3.545090322016128 0
    endloop
  endfacet
  facet normal -0.9951847266721969 -0.09801714032956063 -1.408419263936858e-20
    outer loop
      vertex -14.83078528040323 -3.545090322016128 0
      vertex -14.85 -3.3499999999999996 1.2
      vertex -14.85 -3.3499999999999996 0
    endloop
  endfacet
  facet normal -0.6343932841636445 -0.7730104533627378 0
    outer loop
      vertex -14.405570233019603 -4.1814696123025445 0
      vertex -14.405570233019603 -4.1814696123025445 1.2
      vertex -14.557106781186548 -4.0571067811865476 1.2
    endloop
  endfacet
  facet normal -0.47139673682599764 -0.881921264348355 0
    outer loop
      vertex -14.23268343236509 -4.273879532511287 0
      vertex -14.23268343236509 -4.273879532511287 1.2
      vertex -14.405570233019603 -4.1814696123025445 1.2
    endloop
  endfacet
  facet normal -0.2902846772544611 -0.9569403357322092 0
    outer loop
      vertex -14.045090322016128 -4.33078528040323 0
      vertex -14.045090322016128 -4.33078528040323 1.2
      vertex -14.23268343236509 -4.273879532511287 1.2
    endloop
  endfacet
  facet normal -0.7730104533627397 -0.6343932841636422 0
    outer loop
      vertex -14.557106781186548 -4.0571067811865476 0
      vertex -14.557106781186548 -4.0571067811865476 1.2
      vertex -14.681469612302545 -3.905570233019602 1.2
    endloop
  endfacet
  facet normal -0.8819212643483559 -0.47139673682599603 0
    outer loop
      vertex -14.681469612302545 -3.905570233019602 0
      vertex -14.681469612302545 -3.905570233019602 1.2
      vertex -14.773879532511286 -3.7326834323650893 1.2
    endloop
  endfacet
  facet normal -0.09801714032956085 -0.9951847266721969 0
    outer loop
      vertex -13.85 -4.35 0
      vertex -13.85 -4.35 1.2
      vertex -14.045090322016128 -4.33078528040323 1.2
    endloop
  endfacet
  facet normal -0.9569403357322077 -0.2902846772544659 0
    outer loop
      vertex -14.773879532511286 -3.7326834323650893 0
      vertex -14.773879532511286 -3.7326834323650893 1.2
      vertex -14.83078528040323 -3.545090322016128 1.2
    endloop
  endfacet
  facet normal -0.9951847266721969 -0.09801714032956063 0
    outer loop
      vertex -14.83078528040323 -3.545090322016128 0
      vertex -14.83078528040323 -3.545090322016128 1.2
      vertex -14.85 -3.3499999999999996 1.2
    endloop
  endfacet
  facet normal 0 0 -1
    outer loop
      vertex -14.405570233019603 -4.1814696123025445 0
      vertex -14.557106781186548 -4.0571067811865476 0
      vertex -14.557106781186548 4.0571067811865476 0
    endloop
  endfacet
  facet normal 0 0 -1
    outer loop
      vertex -14.23268343236509 -4.273879532511287 0
      vertex -14.23268343236509 4.273879532511287 0
      vertex -14.045090322016128 -4.33078528040323 0
    endloop
  endfacet
  facet normal 0 0 -1
    outer loop
      vertex -14.405570233019603 -4.1814696123025445 0
      vertex -14.405570233019603 4.1814696123025445 0
      vertex -14.23268343236509 -4.273879532511287 0
    endloop
  endfacet
  facet normal 0 0 -1
    outer loop
      vertex -14.045090322016128 -4.33078528040323 0
      vertex -14.045090322016128 4.33078528040323 0
      vertex -13.85 -4.35 0
    endloop
  endfacet
  facet normal 0 0 -1
    outer loop
      vertex -14.681469612302545 -3.905570233019602 0
      vertex -14.773879532511286 -3.7326834323650893 0
      vertex -14.773879532511286 3.7326834323650893 0
    endloop
  endfacet
  facet normal 0 0 -1
    outer loop
      vertex -14.557106781186548 -4.0571067811865476 0
      vertex -14.681469612302545 -3.905570233019602 0
      vertex -14.681469612302545 3.905570233019602 0
    endloop
  endfacet
  facet normal 0 0 -1
    outer loop
      vertex -14.773879532511286 -3.7326834323650893 0
      vertex -14.83078528040323 -3.545090322016128 0
      vertex -14.83078528040323 3.545090322016128 0
    endloop
  endfacet
  facet normal 0 0 -1
    outer loop
      vertex -14.83078528040323 -3.545090322016128 0
      vertex -14.85 -3.3499999999999996 0
      vertex -14.85 3.3499999999999996 0
    endloop
  endfacet
  facet normal -1 0 0
    outer loop
      vertex -14.85 -3.3499999999999996 0
      vertex -14.85 -3.3499999999999996 1.2
      vertex -14.85 3.3499999999999996 1.2
    endloop
  endfacet
  facet normal 0 -1 0
    outer loop
      vertex -13.85 -4.35 0
      vertex 13.85 -4.35 0
      vertex -13.85 -4.35 1.2
    endloop
  endfacet
  facet normal 0 0 -1
    outer loop
      vertex -13.85 -4.35 0
      vertex -13.85 4.35 0
      vertex 13.85 -4.35 0
    endloop
  endfacet
  facet normal 0 0 1
    outer loop
      vertex -13.85 -4.35 1.2
      vertex -9.745379999279976 -2.9836800023913383 1.2
      vertex -10.949759997427464 -2.9836800023913383 1.2
    endloop
  endfacet
  facet normal 0 0 1
    outer loop
      vertex -13.85 -4.35 1.2
      vertex -7.129199996590614 -2.9836800023913383 1.2
      vertex -9.745379999279976 -2.9836800023913383 1.2
    endloop
  endfacet
  facet normal 0 0 1
    outer loop
      vertex -13.85 -4.35 1.2
      vertex -5.570880003273487 -2.9836800023913383 1.2
      vertex -7.129199996590614 -2.9836800023913383 1.2
    endloop
  endfacet
  facet normal 0 0 1
    outer loop
      vertex -13.85 -4.35 1.2
      vertex -4.943879999220371 -2.9836800023913383 1.2
      vertex -5.570880003273487 -2.9836800023913383 1.2
    endloop
  endfacet
  facet normal 0 0 1
    outer loop
      vertex -9.745379999279976 -2.9836800023913383 1.2
      vertex -7.129199996590614 -2.9836800023913383 1.2
      vertex -9.745379999279976 -1.1812200024724007 1.2
    endloop
  endfacet
  facet normal 0 0 1
    outer loop
      vertex -14.405570233019603 -4.1814696123025445 1.2
      vertex -14.557106781186548 4.0571067811865476 1.2
      vertex -14.557106781186548 -4.0571067811865476 1.2
    endloop
  endfacet
  facet normal 0 0 1
    outer loop
      vertex -14.23268343236509 -4.273879532511287 1.2
      vertex -14.045090322016128 -4.33078528040323 1.2
      vertex -14.23268343236509 4.273879532511287 1.2
    endloop
  endfacet
  facet normal 0 0 1
    outer loop
      vertex -14.405570233019603 -4.1814696123025445 1.2
      vertex -14.23268343236509 -4.273879532511287 1.2
      vertex -14.405570233019603 4.1814696123025445 1.2
    endloop
  endfacet
  facet normal 0 0 1
    outer loop
      vertex -14.045090322016128 -4.33078528040323 1.2
      vertex -13.85 -4.35 1.2
      vertex -14.045090322016128 4.33078528040323 1.2
    endloop
  endfacet
  facet normal 0 0 1
    outer loop
      vertex -14.681469612302545 -3.905570233019602 1.2
      vertex -14.773879532511286 3.7326834323650893 1.2
      vertex -14.773879532511286 -3.7326834323650893 1.2
    endloop
  endfacet
  facet normal 0 0 1
    outer loop
      vertex -14.557106781186548 -4.0571067811865476 1.2
      vertex -14.681469612302545 3.905570233019602 1.2
      vertex -14.681469612302545 -3.905570233019602 1.2
    endloop
  endfacet
  facet normal 0 0 1
    outer loop
      vertex -14.773879532511286 -3.7326834323650893 1.2
      vertex -14.83078528040323 3.545090322016128 1.2
      vertex -14.83078528040323 -3.545090322016128 1.2
    endloop
  endfacet
  facet normal 0 0 1
    outer loop
      vertex -14.83078528040323 -3.545090322016128 1.2
      vertex -14.85 3.3499999999999996 1.2
      vertex -14.85 -3.3499999999999996 1.2
    endloop
  endfacet
  facet normal 0 0 1
    outer loop
      vertex -13.85 -4.35 1.2
      vertex -10.949759997427464 -2.9836800023913383 1.2
      vertex -13.85 4.35 1.2
    endloop
  endfacet
  facet normal 0 0 1
    outer loop
      vertex -9.745379999279976 -1.1812200024724007 1.2
      vertex -7.129199996590614 -2.9836800023913383 1.2
      vertex -8.768880002200603 -0.18438000231981277 1.2
    endloop
  endfacet
  facet normal 0 0 1
    outer loop
      vertex -13.85 -4.35 1.2
      vertex 13.85 -4.35 1.2
      vertex -4.943879999220371 -2.9836800023913383 1.2
    endloop
  endfacet
  facet normal 0 0 1
    outer loop
      vertex -4.943879999220371 2.9811000004410744 1.2
      vertex -5.570880003273487 -2.9836800023913383 1.2
      vertex -4.943879999220371 -2.9836800023913383 1.2
    endloop
  endfacet
  facet normal 0 0 1
    outer loop
      vertex -3.7395600005984306 -2.9836800023913383 1.2
      vertex -1.3796399980783463 -2.9836800023913383 1.2
      vertex -3.7395600005984306 -0.3756000027060509 1.2
    endloop
  endfacet
  facet normal 0 0 1
    outer loop
      vertex -3.7395600005984306 -0.3756000027060509 1.2
      vertex -1.3796399980783463 -2.9836800023913383 1.2
      vertex -1.3796399980783463 -0.3756000027060509 1.2
    endloop
  endfacet
  facet normal 0 0 -1
    outer loop
      vertex -14.83078528040323 -3.545090322016128 0
      vertex -14.85 3.3499999999999996 0
      vertex -14.83078528040323 3.545090322016128 0
    endloop
  endfacet
  facet normal 0 0 -1
    outer loop
      vertex -14.773879532511286 -3.7326834323650893 0
      vertex -14.83078528040323 3.545090322016128 0
      vertex -14.773879532511286 3.7326834323650893 0
    endloop
  endfacet
  facet normal 0 0 -1
    outer loop
      vertex -14.681469612302545 -3.905570233019602 0
      vertex -14.773879532511286 3.7326834323650893 0
      vertex -14.681469612302545 3.905570233019602 0
    endloop
  endfacet
  facet normal 0 0 -1
    outer loop
      vertex -14.557106781186548 -4.0571067811865476 0
      vertex -14.681469612302545 3.905570233019602 0
      vertex -14.557106781186548 4.0571067811865476 0
    endloop
  endfacet
  facet normal 0 0 -1
    outer loop
      vertex -14.405570233019603 -4.1814696123025445 0
      vertex -14.557106781186548 4.0571067811865476 0
      vertex -14.405570233019603 4.1814696123025445 0
    endloop
  endfacet
  facet normal 0 0 -1
    outer loop
      vertex -14.23268343236509 -4.273879532511287 0
      vertex -14.405570233019603 4.1814696123025445 0
      vertex -14.23268343236509 4.273879532511287 0
    endloop
  endfacet
  facet normal 0 0 -1
    outer loop
      vertex -14.045090322016128 -4.33078528040323 0
      vertex -14.23268343236509 4.273879532511287 0
      vertex -14.045090322016128 4.33078528040323 0
    endloop
  endfacet
  facet normal 0 0 -1
    outer loop
      vertex -13.85 -4.35 0
      vertex -14.045090322016128 4.33078528040323 0
      vertex -13.85 4.35 0
    endloop
  endfacet
  facet normal -1 0 0
    outer loop
      vertex -14.85 -3.3499999999999996 0
      vertex -14.85 3.3499999999999996 1.2
      vertex -14.85 3.3499999999999996 0
    endloop
  endfacet
  facet normal -0.9951847266721969 0.09801714032956063 1.408419263936858e-20
    outer loop
      vertex -14.85 3.3499999999999996 0
      vertex -14.83078528040323 3.545090322016128 1.2
      vertex -14.83078528040323 3.545090322016128 0
    endloop
  endfacet
  facet normal -0.9569403357322077 0.2902846772544659 -2.4143463782532686e-19
    outer loop
      vertex -14.83078528040323 3.545090322016128 0
      vertex -14.773879532511286 3.7326834323650893 1.2
      vertex -14.773879532511286 3.7326834323650893 0
    endloop
  endfacet
  facet normal -0.8819212643483559 0.47139673682599603 4.956636405845545e-18
    outer loop
      vertex -14.773879532511286 3.7326834323650893 0
      vertex -14.681469612302545 3.905570233019602 1.2
      vertex -14.681469612302545 3.905570233019602 0
    endloop
  endfacet
  facet normal -0.7730104533627397 0.6343932841636422 -1.5526348423559025e-18
    outer loop
      vertex -14.681469612302545 3.905570233019602 0
      vertex -14.557106781186548 4.0571067811865476 1.2
      vertex -14.557106781186548 4.0571067811865476 0
    endloop
  endfacet
  facet normal -0.6343932841636445 0.7730104533627378 8.530653689077567e-19
    outer loop
      vertex -14.557106781186548 4.0571067811865476 0
      vertex -14.405570233019603 4.1814696123025445 1.2
      vertex -14.405570233019603 4.1814696123025445 0
    endloop
  endfacet
  facet normal -0.47139673682599764 0.881921264348355 3.7171829289897885e-18
    outer loop
      vertex -14.405570233019603 4.1814696123025445 0
      vertex -14.23268343236509 4.273879532511287 1.2
      vertex -14.23268343236509 4.273879532511287 0
    endloop
  endfacet
  facet normal -0.2902846772544611 0.9569403357322092 3.594634866415353e-18
    outer loop
      vertex -14.23268343236509 4.273879532511287 0
      vertex -14.045090322016128 4.33078528040323 1.2
      vertex -14.045090322016128 4.33078528040323 0
    endloop
  endfacet
  facet normal -0.09801714032956085 0.9951847266721969 6.116316224030831e-19
    outer loop
      vertex -14.045090322016128 4.33078528040323 0
      vertex -13.85 4.35 1.2
      vertex -13.85 4.35 0
    endloop
  endfacet
  facet normal -0.9951847266721969 0.09801714032956063 0
    outer loop
      vertex -14.85 3.3499999999999996 0
      vertex -14.85 3.3499999999999996 1.2
      vertex -14.83078528040323 3.545090322016128 1.2
    endloop
  endfacet
  facet normal -0.9569403357322077 0.2902846772544659 0
    outer loop
      vertex -14.83078528040323 3.545090322016128 0
      vertex -14.83078528040323 3.545090322016128 1.2
      vertex -14.773879532511286 3.7326834323650893 1.2
    endloop
  endfacet
  facet normal -0.8819212643483559 0.47139673682599603 0
    outer loop
      vertex -14.773879532511286 3.7326834323650893 0
      vertex -14.773879532511286 3.7326834323650893 1.2
      vertex -14.681469612302545 3.905570233019602 1.2
    endloop
  endfacet
  facet normal -0.7730104533627397 0.6343932841636422 0
    outer loop
      vertex -14.681469612302545 3.905570233019602 0
      vertex -14.681469612302545 3.905570233019602 1.2
      vertex -14.557106781186548 4.0571067811865476 1.2
    endloop
  endfacet
  facet normal -0.6343932841636445 0.7730104533627378 0
    outer loop
      vertex -14.557106781186548 4.0571067811865476 0
      vertex -14.557106781186548 4.0571067811865476 1.2
      vertex -14.405570233019603 4.1814696123025445 1.2
    endloop
  endfacet
  facet normal -0.47139673682599764 0.881921264348355 0
    outer loop
      vertex -14.405570233019603 4.1814696123025445 0
      vertex -14.405570233019603 4.1814696123025445 1.2
      vertex -14.23268343236509 4.273879532511287 1.2
    endloop
  endfacet
  facet normal -0.2902846772544611 0.9569403357322092 0
    outer loop
      vertex -14.23268343236509 4.273879532511287 0
      vertex -14.23268343236509 4.273879532511287 1.2
      vertex -14.045090322016128 4.33078528040323 1.2
    endloop
  endfacet
  facet normal -0.09801714032956085 0.9951847266721969 0
    outer loop
      vertex -14.045090322016128 4.33078528040323 0
      vertex -14.045090322016128 4.33078528040323 1.2
      vertex -13.85 4.35 1.2
    endloop
  endfacet
  facet normal 0 1 0
    outer loop
      vertex -13.85 4.35 0
      vertex -13.85 4.35 1.2
      vertex 13.85 4.35 1.2
    endloop
  endfacet
  facet normal 0 0 1
    outer loop
      vertex -14.83078528040323 -3.545090322016128 1.2
      vertex -14.83078528040323 3.545090322016128 1.2
      vertex -14.85 3.3499999999999996 1.2
    endloop
  endfacet
  facet normal 0 0 1
    outer loop
      vertex -14.773879532511286 -3.7326834323650893 1.2
      vertex -14.773879532511286 3.7326834323650893 1.2
      vertex -14.83078528040323 3.545090322016128 1.2
    endloop
  endfacet
  facet normal 0 0 1
    outer loop
      vertex -14.681469612302545 -3.905570233019602 1.2
      vertex -14.681469612302545 3.905570233019602 1.2
      vertex -14.773879532511286 3.7326834323650893 1.2
    endloop
  endfacet
  facet normal 0 0 1
    outer loop
      vertex -14.557106781186548 -4.0571067811865476 1.2
      vertex -14.557106781186548 4.0571067811865476 1.2
      vertex -14.681469612302545 3.905570233019602 1.2
    endloop
  endfacet
  facet normal 0 0 1
    outer loop
      vertex -14.405570233019603 -4.1814696123025445 1.2
      vertex -14.405570233019603 4.1814696123025445 1.2
      vertex -14.557106781186548 4.0571067811865476 1.2
    endloop
  endfacet
  facet normal 0 0 1
    outer loop
      vertex -14.23268343236509 -4.273879532511287 1.2
      vertex -14.23268343236509 4.273879532511287 1.2
      vertex -14.405570233019603 4.1814696123025445 1.2
    endloop
  endfacet
  facet normal 0 0 1
    outer loop
      vertex -14.045090322016128 -4.33078528040323 1.2
      vertex -14.045090322016128 4.33078528040323 1.2
      vertex -14.23268343236509 4.273879532511287 1.2
    endloop
  endfacet
  facet normal 0 0 1
    outer loop
      vertex -13.85 -4.35 1.2
      vertex -13.85 4.35 1.2
      vertex -14.045090322016128 4.33078528040323 1.2
    endloop
  endfacet
  facet normal 0 0 1
    outer loop
      vertex -13.85 4.35 1.2
      vertex -10.949759997427464 -2.9836800023913383 1.2
      vertex -10.949759997427464 2.9811000004410744 1.2
    endloop
  endfacet
  facet normal 0 0 1
    outer loop
      vertex -7.312260001897812 2.9811000004410744 1.2
      vertex -9.745379999279976 2.9811000004410744 1.2
      vertex -9.745379999279976 0.3323400020599365 1.2
    endloop
  endfacet
  facet normal 0 0 1
    outer loop
      vertex -13.85 4.35 1.2
      vertex -10.949759997427464 2.9811000004410744 1.2
      vertex -9.745379999279976 2.9811000004410744 1.2
    endloop
  endfacet
  facet normal 0 0 1
    outer loop
      vertex -13.85 4.35 1.2
      vertex -9.745379999279976 2.9811000004410744 1.2
      vertex -7.312260001897812 2.9811000004410744 1.2
    endloop
  endfacet
  facet normal 0 0 1
    outer loop
      vertex -7.938840001821518 0.6578399986028671 1.2
      vertex -5.570880003273487 -2.9836800023913383 1.2
      vertex -4.943879999220371 2.9811000004410744 1.2
    endloop
  endfacet
  facet normal 0 0 1
    outer loop
      vertex -3.7395600005984306 0.6334199979901314 1.2
      vertex -1.3796399980783463 0.6334199979901314 1.2
      vertex -1.3796399980783463 2.9811000004410744 1.2
    endloop
  endfacet
  facet normal 0 0 1
    outer loop
      vertex -7.938840001821518 0.6578399986028671 1.2
      vertex -4.943879999220371 2.9811000004410744 1.2
      vertex -5.692919999361038 2.9811000004410744 1.2
    endloop
  endfacet
  facet normal 0 0 1
    outer loop
      vertex -3.7395600005984306 0.6334199979901314 1.2
      vertex -1.3796399980783463 2.9811000004410744 1.2
      vertex -3.7395600005984306 2.9811000004410744 1.2
    endloop
  endfacet
  facet normal 0 0 1
    outer loop
      vertex -13.85 4.35 1.2
      vertex -7.312260001897812 2.9811000004410744 1.2
      vertex 13.85 4.35 1.2
    endloop
  endfacet
  facet normal 0 -1 0
    outer loop
      vertex -13.85 -4.35 1.2
      vertex 13.85 -4.35 0
      vertex 13.85 -4.35 1.2
    endloop
  endfacet
  facet normal 0.09801714032956085 -0.9951847266721969 0
    outer loop
      vertex 13.85 -4.35 0
      vertex 14.045090322016128 -4.33078528040323 0
      vertex 13.85 -4.35 1.2
    endloop
  endfacet
  facet normal 0.2902846772544611 -0.9569403357322092 0
    outer loop
      vertex 14.045090322016128 -4.33078528040323 0
      vertex 14.23268343236509 -4.273879532511287 0
      vertex 14.045090322016128 -4.33078528040323 1.2
    endloop
  endfacet
  facet normal 0.47139673682599764 -0.881921264348355 0
    outer loop
      vertex 14.23268343236509 -4.273879532511287 0
      vertex 14.405570233019603 -4.1814696123025445 0
      vertex 14.23268343236509 -4.273879532511287 1.2
    endloop
  endfacet
  facet normal 0.6343932841636445 -0.7730104533627378 0
    outer loop
      vertex 14.405570233019603 -4.1814696123025445 0
      vertex 14.557106781186548 -4.0571067811865476 0
      vertex 14.405570233019603 -4.1814696123025445 1.2
    endloop
  endfacet
  facet normal 0.7730104533627397 -0.6343932841636422 0
    outer loop
      vertex 14.557106781186548 -4.0571067811865476 0
      vertex 14.681469612302545 -3.905570233019602 0
      vertex 14.557106781186548 -4.0571067811865476 1.2
    endloop
  endfacet
  facet normal 0.8819212643483559 -0.47139673682599603 0
    outer loop
      vertex 14.681469612302545 -3.905570233019602 0
      vertex 14.773879532511286 -3.7326834323650893 0
      vertex 14.681469612302545 -3.905570233019602 1.2
    endloop
  endfacet
  facet normal 0.9569403357322077 -0.2902846772544659 0
    outer loop
      vertex 14.773879532511286 -3.7326834323650893 0
      vertex 14.83078528040323 -3.545090322016128 0
      vertex 14.773879532511286 -3.7326834323650893 1.2
    endloop
  endfacet
  facet normal 0.9951847266721969 -0.09801714032956063 0
    outer loop
      vertex 14.83078528040323 -3.545090322016128 0
      vertex 14.85 -3.3499999999999996 0
      vertex 14.83078528040323 -3.545090322016128 1.2
    endloop
  endfacet
  facet normal 0.09801714032956085 -0.9951847266721969 0
    outer loop
      vertex 14.045090322016128 -4.33078528040323 0
      vertex 14.045090322016128 -4.33078528040323 1.2
      vertex 13.85 -4.35 1.2
    endloop
  endfacet
  facet normal 0.2902846772544611 -0.9569403357322092 0
    outer loop
      vertex 14.23268343236509 -4.273879532511287 0
      vertex 14.23268343236509 -4.273879532511287 1.2
      vertex 14.045090322016128 -4.33078528040323 1.2
    endloop
  endfacet
  facet normal 0.47139673682599764 -0.881921264348355 0
    outer loop
      vertex 14.405570233019603 -4.1814696123025445 0
      vertex 14.405570233019603 -4.1814696123025445 1.2
      vertex 14.23268343236509 -4.273879532511287 1.2
    endloop
  endfacet
  facet normal 0.6343932841636445 -0.7730104533627378 0
    outer loop
      vertex 14.557106781186548 -4.0571067811865476 0
      vertex 14.557106781186548 -4.0571067811865476 1.2
      vertex 14.405570233019603 -4.1814696123025445 1.2
    endloop
  endfacet
  facet normal 0.7730104533627397 -0.6343932841636422 0
    outer loop
      vertex 14.681469612302545 -3.905570233019602 0
      vertex 14.681469612302545 -3.905570233019602 1.2
      vertex 14.557106781186548 -4.0571067811865476 1.2
    endloop
  endfacet
  facet normal 0.8819212643483559 -0.47139673682599603 0
    outer loop
      vertex 14.773879532511286 -3.7326834323650893 0
      vertex 14.773879532511286 -3.7326834323650893 1.2
      vertex 14.681469612302545 -3.905570233019602 1.2
    endloop
  endfacet
  facet normal 0.9569403357322077 -0.2902846772544659 0
    outer loop
      vertex 14.83078528040323 -3.545090322016128 0
      vertex 14.83078528040323 -3.545090322016128 1.2
      vertex 14.773879532511286 -3.7326834323650893 1.2
    endloop
  endfacet
  facet normal 0.9951847266721969 -0.09801714032956063 0
    outer loop
      vertex 14.85 -3.3499999999999996 0
      vertex 14.85 -3.3499999999999996 1.2
      vertex 14.83078528040323 -3.545090322016128 1.2
    endloop
  endfacet
  facet normal 0 0 -1
    outer loop
      vertex 13.85 -4.35 0
      vertex 13.85 4.35 0
      vertex 14.045090322016128 -4.33078528040323 0
    endloop
  endfacet
  facet normal 0 0 -1
    outer loop
      vertex 14.045090322016128 -4.33078528040323 0
      vertex 14.045090322016128 4.33078528040323 0
      vertex 14.23268343236509 -4.273879532511287 0
    endloop
  endfacet
  facet normal 0 0 -1
    outer loop
      vertex 14.23268343236509 -4.273879532511287 0
      vertex 14.23268343236509 4.273879532511287 0
      vertex 14.405570233019603 -4.1814696123025445 0
    endloop
  endfacet
  facet normal 0 0 -1
    outer loop
      vertex 14.405570233019603 -4.1814696123025445 0
      vertex 14.405570233019603 4.1814696123025445 0
      vertex 14.557106781186548 -4.0571067811865476 0
    endloop
  endfacet
  facet normal 0 0 -1
    outer loop
      vertex 14.557106781186548 -4.0571067811865476 0
      vertex 14.557106781186548 4.0571067811865476 0
      vertex 14.681469612302545 -3.905570233019602 0
    endloop
  endfacet
  facet normal 0 0 -1
    outer loop
      vertex 14.681469612302545 -3.905570233019602 0
      vertex 14.681469612302545 3.905570233019602 0
      vertex 14.773879532511286 -3.7326834323650893 0
    endloop
  endfacet
  facet normal 0 0 -1
    outer loop
      vertex 14.773879532511286 -3.7326834323650893 0
      vertex 14.773879532511286 3.7326834323650893 0
      vertex 14.83078528040323 -3.545090322016128 0
    endloop
  endfacet
  facet normal 0 0 -1
    outer loop
      vertex 14.83078528040323 -3.545090322016128 0
      vertex 14.83078528040323 3.545090322016128 0
      vertex 14.85 -3.3499999999999996 0
    endloop
  endfacet
  facet normal 1 0 0
    outer loop
      vertex 14.85 -3.3499999999999996 0
      vertex 14.85 3.3499999999999996 0
      vertex 14.85 -3.3499999999999996 1.2
    endloop
  endfacet
  facet normal 0 0 1
    outer loop
      vertex 13.85 -4.35 1.2
      vertex -3.7395600005984306 -2.9836800023913383 1.2
      vertex -4.943879999220371 -2.9836800023913383 1.2
    endloop
  endfacet
  facet normal 0 0 1
    outer loop
      vertex 13.85 -4.35 1.2
      vertex -1.3796399980783463 -2.9836800023913383 1.2
      vertex -3.7395600005984306 -2.9836800023913383 1.2
    endloop
  endfacet
  facet normal 0 0 1
    outer loop
      vertex 13.85 -4.35 1.2
      vertex -0.17531999945640564 -2.9836800023913383 1.2
      vertex -1.3796399980783463 -2.9836800023913383 1.2
    endloop
  endfacet
  facet normal 0 0 1
    outer loop
      vertex 13.85 -4.35 1.2
      vertex 2.412780001759529 -2.9836800023913383 1.2
      vertex -0.17531999945640564 -2.9836800023913383 1.2
    endloop
  endfacet
  facet normal 0 0 1
    outer loop
      vertex 13.85 -4.35 1.2
      vertex 3.6171599999070168 -2.9836800023913383 1.2
      vertex 2.412780001759529 -2.9836800023913383 1.2
    endloop
  endfacet
  facet normal 0 0 1
    outer loop
      vertex 2.412780001759529 1.9720799997448921 1.2
      vertex -0.17531999945640564 -2.9836800023913383 1.2
      vertex 2.412780001759529 -2.9836800023913383 1.2
    endloop
  endfacet
  facet normal 0 0 1
    outer loop
      vertex 6.172679997980595 2.9811000004410744 1.2
      vertex 3.6171599999070168 -2.9836800023913383 1.2
      vertex 6.172679997980595 -2.9836800023913383 1.2
    endloop
  endfacet
  facet normal 0 0 1
    outer loop
      vertex 13.85 -4.35 1.2
      vertex 6.172679997980595 -2.9836800023913383 1.2
      vertex 3.6171599999070168 -2.9836800023913383 1.2
    endloop
  endfacet
  facet normal 0 0 1
    outer loop
      vertex 13.85 -4.35 1.2
      vertex 7.291560001671314 -2.9836800023913383 1.2
      vertex 6.172679997980595 -2.9836800023913383 1.2
    endloop
  endfacet
  facet normal 0 0 1
    outer loop
      vertex 13.85 -4.35 1.2
      vertex 9.696180000901222 -2.9836800023913383 1.2
      vertex 7.291560001671314 -2.9836800023913383 1.2
    endloop
  endfacet
  facet normal 0 0 1
    outer loop
      vertex 13.85 -4.35 1.2
      vertex 10.904579997062683 -2.9836800023913383 1.2
      vertex 9.696180000901222 -2.9836800023913383 1.2
    endloop
  endfacet
  facet normal 0 0 1
    outer loop
      vertex 7.291560001671314 -2.9836800023913383 1.2
      vertex 9.696180000901222 -2.9836800023913383 1.2
      vertex 7.291560001671314 0.9060600027441978 1.2
    endloop
  endfacet
  facet normal 0 0 1
    outer loop
      vertex 13.85 -4.35 1.2
      vertex 10.904579997062683 2.9811000004410744 1.2
      vertex 10.904579997062683 -2.9836800023913383 1.2
    endloop
  endfacet
  facet normal 0 0 1
    outer loop
      vertex 13.85 -4.35 1.2
      vertex 14.045090322016128 -4.33078528040323 1.2
      vertex 13.85 4.35 1.2
    endloop
  endfacet
  facet normal 0 0 1
    outer loop
      vertex 14.045090322016128 -4.33078528040323 1.2
      vertex 14.23268343236509 -4.273879532511287 1.2
      vertex 14.045090322016128 4.33078528040323 1.2
    endloop
  endfacet
  facet normal 0 0 1
    outer loop
      vertex 14.23268343236509 -4.273879532511287 1.2
      vertex 14.405570233019603 -4.1814696123025445 1.2
      vertex 14.23268343236509 4.273879532511287 1.2
    endloop
  endfacet
  facet normal 0 0 1
    outer loop
      vertex 14.405570233019603 -4.1814696123025445 1.2
      vertex 14.557106781186548 -4.0571067811865476 1.2
      vertex 14.405570233019603 4.1814696123025445 1.2
    endloop
  endfacet
  facet normal 0 0 1
    outer loop
      vertex 14.557106781186548 -4.0571067811865476 1.2
      vertex 14.681469612302545 -3.905570233019602 1.2
      vertex 14.557106781186548 4.0571067811865476 1.2
    endloop
  endfacet
  facet normal 0 0 1
    outer loop
      vertex 14.681469612302545 -3.905570233019602 1.2
      vertex 14.773879532511286 -3.7326834323650893 1.2
      vertex 14.681469612302545 3.905570233019602 1.2
    endloop
  endfacet
  facet normal 0 0 1
    outer loop
      vertex 14.773879532511286 -3.7326834323650893 1.2
      vertex 14.83078528040323 -3.545090322016128 1.2
      vertex 14.773879532511286 3.7326834323650893 1.2
    endloop
  endfacet
  facet normal 0 0 1
    outer loop
      vertex 14.83078528040323 -3.545090322016128 1.2
      vertex 14.85 -3.3499999999999996 1.2
      vertex 14.83078528040323 3.545090322016128 1.2
    endloop
  endfacet
  facet normal 0 0 -1
    outer loop
      vertex -13.85 4.35 0
      vertex 13.85 4.35 0
      vertex 13.85 -4.35 0
    endloop
  endfacet
  facet normal 0 1 0
    outer loop
      vertex -13.85 4.35 0
      vertex 13.85 4.35 1.2
      vertex 13.85 4.35 0
    endloop
  endfacet
  facet normal 0 0 -1
    outer loop
      vertex 14.85 -3.3499999999999996 0
      vertex 14.83078528040323 3.545090322016128 0
      vertex 14.85 3.3499999999999996 0
    endloop
  endfacet
  facet normal 0 0 -1
    outer loop
      vertex 14.83078528040323 -3.545090322016128 0
      vertex 14.773879532511286 3.7326834323650893 0
      vertex 14.83078528040323 3.545090322016128 0
    endloop
  endfacet
  facet normal 0 0 -1
    outer loop
      vertex 14.681469612302545 -3.905570233019602 0
      vertex 14.557106781186548 4.0571067811865476 0
      vertex 14.681469612302545 3.905570233019602 0
    endloop
  endfacet
  facet normal 0 0 -1
    outer loop
      vertex 14.773879532511286 -3.7326834323650893 0
      vertex 14.681469612302545 3.905570233019602 0
      vertex 14.773879532511286 3.7326834323650893 0
    endloop
  endfacet
  facet normal 0 0 -1
    outer loop
      vertex 14.045090322016128 -4.33078528040323 0
      vertex 13.85 4.35 0
      vertex 14.045090322016128 4.33078528040323 0
    endloop
  endfacet
  facet normal 0 0 -1
    outer loop
      vertex 14.405570233019603 -4.1814696123025445 0
      vertex 14.23268343236509 4.273879532511287 0
      vertex 14.405570233019603 4.1814696123025445 0
    endloop
  endfacet
  facet normal 0 0 -1
    outer loop
      vertex 14.23268343236509 -4.273879532511287 0
      vertex 14.045090322016128 4.33078528040323 0
      vertex 14.23268343236509 4.273879532511287 0
    endloop
  endfacet
  facet normal 0 0 -1
    outer loop
      vertex 14.557106781186548 -4.0571067811865476 0
      vertex 14.405570233019603 4.1814696123025445 0
      vertex 14.557106781186548 4.0571067811865476 0
    endloop
  endfacet
  facet normal 1 0 0
    outer loop
      vertex 14.85 -3.3499999999999996 1.2
      vertex 14.85 3.3499999999999996 0
      vertex 14.85 3.3499999999999996 1.2
    endloop
  endfacet
  facet normal 0.9951847266721969 0.09801714032956063 0
    outer loop
      vertex 14.85 3.3499999999999996 0
      vertex 14.83078528040323 3.545090322016128 0
      vertex 14.85 3.3499999999999996 1.2
    endloop
  endfacet
  facet normal 0.9569403357322077 0.2902846772544659 0
    outer loop
      vertex 14.83078528040323 3.545090322016128 0
      vertex 14.773879532511286 3.7326834323650893 0
      vertex 14.83078528040323 3.545090322016128 1.2
    endloop
  endfacet
  facet normal 0.8819212643483559 0.47139673682599603 0
    outer loop
      vertex 14.773879532511286 3.7326834323650893 0
      vertex 14.681469612302545 3.905570233019602 0
      vertex 14.773879532511286 3.7326834323650893 1.2
    endloop
  endfacet
  facet normal 0.7730104533627397 0.6343932841636422 0
    outer loop
      vertex 14.681469612302545 3.905570233019602 0
      vertex 14.557106781186548 4.0571067811865476 0
      vertex 14.681469612302545 3.905570233019602 1.2
    endloop
  endfacet
  facet normal 0.47139673682599764 0.881921264348355 -3.7171829289897885e-18
    outer loop
      vertex 14.23268343236509 4.273879532511287 0
      vertex 14.405570233019603 4.1814696123025445 1.2
      vertex 14.405570233019603 4.1814696123025445 0
    endloop
  endfacet
  facet normal 0.09801714032956085 0.9951847266721969 -6.116316224030831e-19
    outer loop
      vertex 13.85 4.35 0
      vertex 14.045090322016128 4.33078528040323 1.2
      vertex 14.045090322016128 4.33078528040323 0
    endloop
  endfacet
  facet normal 0.2902846772544611 0.9569403357322092 -3.594634866415353e-18
    outer loop
      vertex 14.045090322016128 4.33078528040323 0
      vertex 14.23268343236509 4.273879532511287 1.2
      vertex 14.23268343236509 4.273879532511287 0
    endloop
  endfacet
  facet normal 0.6343932841636445 0.7730104533627378 0
    outer loop
      vertex 14.557106781186548 4.0571067811865476 0
      vertex 14.405570233019603 4.1814696123025445 0
      vertex 14.557106781186548 4.0571067811865476 1.2
    endloop
  endfacet
  facet normal 0.9951847266721969 0.09801714032956063 0
    outer loop
      vertex 14.83078528040323 3.545090322016128 0
      vertex 14.83078528040323 3.545090322016128 1.2
      vertex 14.85 3.3499999999999996 1.2
    endloop
  endfacet
  facet normal 0.9569403357322077 0.2902846772544659 0
    outer loop
      vertex 14.773879532511286 3.7326834323650893 0
      vertex 14.773879532511286 3.7326834323650893 1.2
      vertex 14.83078528040323 3.545090322016128 1.2
    endloop
  endfacet
  facet normal 0.09801714032956085 0.9951847266721969 0
    outer loop
      vertex 13.85 4.35 0
      vertex 13.85 4.35 1.2
      vertex 14.045090322016128 4.33078528040323 1.2
    endloop
  endfacet
  facet normal 0.8819212643483559 0.47139673682599603 0
    outer loop
      vertex 14.681469612302545 3.905570233019602 0
      vertex 14.681469612302545 3.905570233019602 1.2
      vertex 14.773879532511286 3.7326834323650893 1.2
    endloop
  endfacet
  facet normal 0.7730104533627397 0.6343932841636422 0
    outer loop
      vertex 14.557106781186548 4.0571067811865476 0
      vertex 14.557106781186548 4.0571067811865476 1.2
      vertex 14.681469612302545 3.905570233019602 1.2
    endloop
  endfacet
  facet normal 0.2902846772544611 0.9569403357322092 0
    outer loop
      vertex 14.045090322016128 4.33078528040323 0
      vertex 14.045090322016128 4.33078528040323 1.2
      vertex 14.23268343236509 4.273879532511287 1.2
    endloop
  endfacet
  facet normal 0.47139673682599764 0.881921264348355 0
    outer loop
      vertex 14.23268343236509 4.273879532511287 0
      vertex 14.23268343236509 4.273879532511287 1.2
      vertex 14.405570233019603 4.1814696123025445 1.2
    endloop
  endfacet
  facet normal 0.6343932841636445 0.7730104533627378 0
    outer loop
      vertex 14.405570233019603 4.1814696123025445 0
      vertex 14.405570233019603 4.1814696123025445 1.2
      vertex 14.557106781186548 4.0571067811865476 1.2
    endloop
  endfacet
  facet normal 0 0 1
    outer loop
      vertex -0.17531999945640564 -2.9836800023913383 1.2
      vertex 2.412780001759529 1.9720799997448921 1.2
      vertex 0.6428999975323677 1.9720799997448921 1.2
    endloop
  endfacet
  facet normal 0 0 1
    outer loop
      vertex -0.17531999945640564 -2.9836800023913383 1.2
      vertex 0.6428999975323677 1.9720799997448921 1.2
      vertex -0.17531999945640564 2.9811000004410744 1.2
    endloop
  endfacet
  facet normal 0 0 1
    outer loop
      vertex 3.6171599999070168 -2.9836800023913383 1.2
      vertex 5.382959999144077 1.9720799997448921 1.2
      vertex 3.6171599999070168 1.9720799997448921 1.2
    endloop
  endfacet
  facet normal 0 0 1
    outer loop
      vertex 3.6171599999070168 -2.9836800023913383 1.2
      vertex 6.172679997980595 2.9811000004410744 1.2
      vertex 5.382959999144077 1.9720799997448921 1.2
    endloop
  endfacet
  facet normal 0 0 1
    outer loop
      vertex -0.17531999945640564 2.9811000004410744 1.2
      vertex 0.6428999975323677 1.9720799997448921 1.2
      vertex 0.6428999975323677 2.9811000004410744 1.2
    endloop
  endfacet
  facet normal 0 0 1
    outer loop
      vertex 13.85 4.35 1.2
      vertex -7.312260001897812 2.9811000004410744 1.2
      vertex -5.692919999361038 2.9811000004410744 1.2
    endloop
  endfacet
  facet normal 0 0 1
    outer loop
      vertex 13.85 4.35 1.2
      vertex -5.692919999361038 2.9811000004410744 1.2
      vertex -4.943879999220371 2.9811000004410744 1.2
    endloop
  endfacet
  facet normal 0 0 1
    outer loop
      vertex 13.85 4.35 1.2
      vertex -4.943879999220371 2.9811000004410744 1.2
      vertex -3.7395600005984306 2.9811000004410744 1.2
    endloop
  endfacet
  facet normal 0 0 1
    outer loop
      vertex 13.85 4.35 1.2
      vertex -3.7395600005984306 2.9811000004410744 1.2
      vertex -1.3796399980783463 2.9811000004410744 1.2
    endloop
  endfacet
  facet normal 0 0 1
    outer loop
      vertex 5.382959999144077 1.9720799997448921 1.2
      vertex 6.172679997980595 2.9811000004410744 1.2
      vertex 5.382959999144077 2.9811000004410744 1.2
    endloop
  endfacet
  facet normal 0 0 1
    outer loop
      vertex 13.85 4.35 1.2
      vertex -1.3796399980783463 2.9811000004410744 1.2
      vertex -0.17531999945640564 2.9811000004410744 1.2
    endloop
  endfacet
  facet normal 0 0 1
    outer loop
      vertex 13.85 4.35 1.2
      vertex -0.17531999945640564 2.9811000004410744 1.2
      vertex 0.6428999975323677 2.9811000004410744 1.2
    endloop
  endfacet
  facet normal 0 0 1
    outer loop
      vertex 13.85 4.35 1.2
      vertex 0.6428999975323677 2.9811000004410744 1.2
      vertex 5.382959999144077 2.9811000004410744 1.2
    endloop
  endfacet
  facet normal 0 0 1
    outer loop
      vertex 9.785700000822544 -1.002180002629757 1.2
      vertex 9.785700000822544 2.9811000004410744 1.2
      vertex 7.344480000436306 2.9811000004410744 1.2
    endloop
  endfacet
  facet normal 0 0 1
    outer loop
      vertex 13.85 -4.35 1.2
      vertex 13.85 4.35 1.2
      vertex 10.904579997062683 2.9811000004410744 1.2
    endloop
  endfacet
  facet normal 0 0 1
    outer loop
      vertex 14.85 -3.3499999999999996 1.2
      vertex 14.85 3.3499999999999996 1.2
      vertex 14.83078528040323 3.545090322016128 1.2
    endloop
  endfacet
  facet normal 0 0 1
    outer loop
      vertex 14.83078528040323 -3.545090322016128 1.2
      vertex 14.83078528040323 3.545090322016128 1.2
      vertex 14.773879532511286 3.7326834323650893 1.2
    endloop
  endfacet
  facet normal 0 0 1
    outer loop
      vertex 14.681469612302545 -3.905570233019602 1.2
      vertex 14.681469612302545 3.905570233019602 1.2
      vertex 14.557106781186548 4.0571067811865476 1.2
    endloop
  endfacet
  facet normal 0 0 1
    outer loop
      vertex 14.773879532511286 -3.7326834323650893 1.2
      vertex 14.773879532511286 3.7326834323650893 1.2
      vertex 14.681469612302545 3.905570233019602 1.2
    endloop
  endfacet
  facet normal 0 0 1
    outer loop
      vertex 14.045090322016128 -4.33078528040323 1.2
      vertex 14.045090322016128 4.33078528040323 1.2
      vertex 13.85 4.35 1.2
    endloop
  endfacet
  facet normal 0 0 1
    outer loop
      vertex 14.405570233019603 -4.1814696123025445 1.2
      vertex 14.405570233019603 4.1814696123025445 1.2
      vertex 14.23268343236509 4.273879532511287 1.2
    endloop
  endfacet
  facet normal 0 0 1
    outer loop
      vertex 14.23268343236509 -4.273879532511287 1.2
      vertex 14.23268343236509 4.273879532511287 1.2
      vertex 14.045090322016128 4.33078528040323 1.2
    endloop
  endfacet
  facet normal 0 0 1
    outer loop
      vertex 14.557106781186548 -4.0571067811865476 1.2
      vertex 14.557106781186548 4.0571067811865476 1.2
      vertex 14.405570233019603 4.1814696123025445 1.2
    endloop
  endfacet
  facet normal 0 0 1
    outer loop
      vertex 13.85 4.35 1.2
      vertex 5.382959999144077 2.9811000004410744 1.2
      vertex 6.172679997980595 2.9811000004410744 1.2
    endloop
  endfacet
  facet normal 0 0 1
    outer loop
      vertex 13.85 4.35 1.2
      vertex 6.172679997980595 2.9811000004410744 1.2
      vertex 7.344480000436306 2.9811000004410744 1.2
    endloop
  endfacet
  facet normal 0 0 1
    outer loop
      vertex 13.85 4.35 1.2
      vertex 7.344480000436306 2.9811000004410744 1.2
      vertex 9.785700000822544 2.9811000004410744 1.2
    endloop
  endfacet
  facet normal 0 0 1
    outer loop
      vertex 13.85 4.35 1.2
      vertex 9.785700000822544 2.9811000004410744 1.2
      vertex 10.904579997062683 2.9811000004410744 1.2
    endloop
  endfacet
  facet normal 0 -1 0
    outer loop
      vertex -10.949759997427464 -2.9836800023913383 2
      vertex -10.949759997427464 -2.9836800023913383 1.2
      vertex -9.745379999279976 -2.9836800023913383 1.2
    endloop
  endfacet
  facet normal 1 0 0
    outer loop
      vertex -9.745379999279976 -2.9836800023913383 2
      vertex -9.745379999279976 -2.9836800023913383 1.2
      vertex -9.745379999279976 -1.1812200024724007 1.2
    endloop
  endfacet
  facet normal 0 -1 0
    outer loop
      vertex -10.949759997427464 -2.9836800023913383 2
      vertex -9.745379999279976 -2.9836800023913383 1.2
      vertex -9.745379999279976 -2.9836800023913383 2
    endloop
  endfacet
  facet normal 0 0 1
    outer loop
      vertex -10.949759997427464 -2.9836800023913383 2
      vertex -9.745379999279976 -2.9836800023913383 2
      vertex -9.745379999279976 -1.1812200024724007 2
    endloop
  endfacet
  facet normal -0.862871261681814 -0.5054237684989049 0
    outer loop
      vertex -8.768880002200603 -0.18438000231981277 2
      vertex -8.768880002200603 -0.18438000231981277 1.2
      vertex -7.129199996590614 -2.9836800023913383 1.2
    endloop
  endfacet
  facet normal 0.7143572665093226 -0.6997811770727538 0
    outer loop
      vertex -9.745379999279976 -1.1812200024724007 2
      vertex -9.745379999279976 -1.1812200024724007 1.2
      vertex -8.768880002200603 -0.18438000231981277 1.2
    endloop
  endfacet
  facet normal 1 0 0
    outer loop
      vertex -9.745379999279976 -2.9836800023913383 2
      vertex -9.745379999279976 -1.1812200024724007 1.2
      vertex -9.745379999279976 -1.1812200024724007 2
    endloop
  endfacet
  facet normal -0.862871261681814 -0.5054237684989049 0
    outer loop
      vertex -7.129199996590614 -2.9836800023913383 2
      vertex -8.768880002200603 -0.18438000231981277 2
      vertex -7.129199996590614 -2.9836800023913383 1.2
    endloop
  endfacet
  facet normal 0 0 1
    outer loop
      vertex -10.949759997427464 -2.9836800023913383 2
      vertex -9.745379999279976 -1.1812200024724007 2
      vertex -9.745379999279976 0.3323400020599365 2
    endloop
  endfacet
  facet normal -1 0 0
    outer loop
      vertex -10.949759997427464 -2.9836800023913383 2
      vertex -10.949759997427464 2.9811000004410744 2
      vertex -10.949759997427464 -2.9836800023913383 1.2
    endloop
  endfacet
  facet normal 0.7143572665093226 -0.6997811770727538 0
    outer loop
      vertex -9.745379999279976 -1.1812200024724007 2
      vertex -8.768880002200603 -0.18438000231981277 1.2
      vertex -8.768880002200603 -0.18438000231981277 2
    endloop
  endfacet
  facet normal 0 0 1
    outer loop
      vertex -9.745379999279976 -1.1812200024724007 2
      vertex -8.768880002200603 -0.18438000231981277 2
      vertex -9.745379999279976 0.3323400020599365 2
    endloop
  endfacet
  facet normal 0 0 1
    outer loop
      vertex -7.129199996590614 -2.9836800023913383 2
      vertex -7.938840001821518 0.6578399986028671 2
      vertex -8.768880002200603 -0.18438000231981277 2
    endloop
  endfacet
  facet normal 0 -1 0
    outer loop
      vertex -7.129199996590614 -2.9836800023913383 2
      vertex -7.129199996590614 -2.9836800023913383 1.2
      vertex -5.570880003273487 -2.9836800023913383 1.2
    endloop
  endfacet
  facet normal 0 -1 0
    outer loop
      vertex -4.943879999220371 -2.9836800023913383 2
      vertex -4.943879999220371 -2.9836800023913383 1.2
      vertex -3.7395600005984306 -2.9836800023913383 1.2
    endloop
  endfacet
  facet normal 0 -1 0
    outer loop
      vertex -1.3796399980783463 -2.9836800023913383 2
      vertex -1.3796399980783463 -2.9836800023913383 1.2
      vertex -0.17531999945640564 -2.9836800023913383 1.2
    endloop
  endfacet
  facet normal 0 -1 0
    outer loop
      vertex -7.129199996590614 -2.9836800023913383 2
      vertex -5.570880003273487 -2.9836800023913383 1.2
      vertex -5.570880003273487 -2.9836800023913383 2
    endloop
  endfacet
  facet normal 0 -1 0
    outer loop
      vertex -4.943879999220371 -2.9836800023913383 2
      vertex -3.7395600005984306 -2.9836800023913383 1.2
      vertex -3.7395600005984306 -2.9836800023913383 2
    endloop
  endfacet
  facet normal 0 -1 0
    outer loop
      vertex -1.3796399980783463 -2.9836800023913383 2
      vertex -0.17531999945640564 -2.9836800023913383 1.2
      vertex -0.17531999945640564 -2.9836800023913383 2
    endloop
  endfacet
  facet normal 0.8383413512420268 0.5451456491596468 0
    outer loop
      vertex -5.570880003273487 -2.9836800023913383 2
      vertex -5.570880003273487 -2.9836800023913383 1.2
      vertex -7.938840001821518 0.6578399986028671 1.2
    endloop
  endfacet
  facet normal 1 0 0
    outer loop
      vertex -3.7395600005984306 -2.9836800023913383 2
      vertex -3.7395600005984306 -2.9836800023913383 1.2
      vertex -3.7395600005984306 -0.3756000027060509 1.2
    endloop
  endfacet
  facet normal -1 0 0
    outer loop
      vertex -1.3796399980783463 -0.3756000027060509 2
      vertex -1.3796399980783463 -0.3756000027060509 1.2
      vertex -1.3796399980783463 -2.9836800023913383 1.2
    endloop
  endfacet
  facet normal 0 -1 0
    outer loop
      vertex -3.7395600005984306 -0.3756000027060509 2
      vertex -3.7395600005984306 -0.3756000027060509 1.2
      vertex -1.3796399980783463 -0.3756000027060509 1.2
    endloop
  endfacet
  facet normal 1 0 0
    outer loop
      vertex -0.17531999945640564 -2.9836800023913383 2
      vertex -0.17531999945640564 -2.9836800023913383 1.2
      vertex -0.17531999945640564 2.9811000004410744 1.2
    endloop
  endfacet
  facet normal 1 0 0
    outer loop
      vertex -3.7395600005984306 -2.9836800023913383 2
      vertex -3.7395600005984306 -0.3756000027060509 1.2
      vertex -3.7395600005984306 -0.3756000027060509 2
    endloop
  endfacet
  facet normal 0 0 1
    outer loop
      vertex -7.129199996590614 -2.9836800023913383 2
      vertex -5.570880003273487 -2.9836800023913383 2
      vertex -7.938840001821518 0.6578399986028671 2
    endloop
  endfacet
  facet normal 0 0 1
    outer loop
      vertex -4.943879999220371 -2.9836800023913383 2
      vertex -3.7395600005984306 -2.9836800023913383 2
      vertex -3.7395600005984306 -0.3756000027060509 2
    endloop
  endfacet
  facet normal 0.8383413512420268 0.5451456491596468 1.437708847114558e-16
    outer loop
      vertex -5.570880003273487 -2.9836800023913383 2
      vertex -7.938840001821518 0.6578399986028671 1.2
      vertex -7.938840001821518 0.6578399986028671 2
    endloop
  endfacet
  facet normal -1 0 0
    outer loop
      vertex -4.943879999220371 -2.9836800023913383 2
      vertex -4.943879999220371 2.9811000004410744 2
      vertex -4.943879999220371 -2.9836800023913383 1.2
    endloop
  endfacet
  facet normal 0 0 1
    outer loop
      vertex -4.943879999220371 -2.9836800023913383 2
      vertex -3.7395600005984306 -0.3756000027060509 2
      vertex -3.7395600005984306 0.6334199979901314 2
    endloop
  endfacet
  facet normal -1 0 0
    outer loop
      vertex -1.3796399980783463 -2.9836800023913383 2
      vertex -1.3796399980783463 -0.3756000027060509 2
      vertex -1.3796399980783463 -2.9836800023913383 1.2
    endloop
  endfacet
  facet normal 0 0 1
    outer loop
      vertex -1.3796399980783463 -2.9836800023913383 2
      vertex -0.17531999945640564 -2.9836800023913383 2
      vertex -1.3796399980783463 -0.3756000027060509 2
    endloop
  endfacet
  facet normal 0 -1 0
    outer loop
      vertex -3.7395600005984306 -0.3756000027060509 2
      vertex -1.3796399980783463 -0.3756000027060509 1.2
      vertex -1.3796399980783463 -0.3756000027060509 2
    endloop
  endfacet
  facet normal 0 0 1
    outer loop
      vertex -3.7395600005984306 -0.3756000027060509 2
      vertex -1.3796399980783463 -0.3756000027060509 2
      vertex -1.3796399980783463 0.6334199979901314 2
    endloop
  endfacet
  facet normal 0 0 1
    outer loop
      vertex -0.17531999945640564 -2.9836800023913383 2
      vertex -1.3796399980783463 0.6334199979901314 2
      vertex -1.3796399980783463 -0.3756000027060509 2
    endloop
  endfacet
  facet normal -1 0 0
    outer loop
      vertex -10.949759997427464 2.9811000004410744 2
      vertex -10.949759997427464 2.9811000004410744 1.2
      vertex -10.949759997427464 -2.9836800023913383 1.2
    endloop
  endfacet
  facet normal 1 0 0
    outer loop
      vertex -9.745379999279976 0.3323400020599365 2
      vertex -9.745379999279976 0.3323400020599365 1.2
      vertex -9.745379999279976 2.9811000004410744 1.2
    endloop
  endfacet
  facet normal -0.7364488095542452 0.6764932748417646 0
    outer loop
      vertex -7.312260001897812 2.9811000004410744 2
      vertex -7.312260001897812 2.9811000004410744 1.2
      vertex -9.745379999279976 0.3323400020599365 1.2
    endloop
  endfacet
  facet normal 0 0 1
    outer loop
      vertex -10.949759997427464 -2.9836800023913383 2
      vertex -9.745379999279976 0.3323400020599365 2
      vertex -10.949759997427464 2.9811000004410744 2
    endloop
  endfacet
  facet normal 0 0 1
    outer loop
      vertex -8.768880002200603 -0.18438000231981277 2
      vertex -7.938840001821518 0.6578399986028671 2
      vertex -9.745379999279976 0.3323400020599365 2
    endloop
  endfacet
  facet normal 1 0 0
    outer loop
      vertex -9.745379999279976 0.3323400020599365 2
      vertex -9.745379999279976 2.9811000004410744 1.2
      vertex -9.745379999279976 2.9811000004410744 2
    endloop
  endfacet
  facet normal -0.7364488095542452 0.6764932748417646 0
    outer loop
      vertex -9.745379999279976 0.3323400020599365 2
      vertex -7.312260001897812 2.9811000004410744 2
      vertex -9.745379999279976 0.3323400020599365 1.2
    endloop
  endfacet
  facet normal 0 0 1
    outer loop
      vertex -9.745379999279976 0.3323400020599365 2
      vertex -9.745379999279976 2.9811000004410744 2
      vertex -10.949759997427464 2.9811000004410744 2
    endloop
  endfacet
  facet normal 0 0 1
    outer loop
      vertex -9.745379999279976 0.3323400020599365 2
      vertex -7.938840001821518 0.6578399986028671 2
      vertex -7.312260001897812 2.9811000004410744 2
    endloop
  endfacet
  facet normal 0 1 0
    outer loop
      vertex -9.745379999279976 2.9811000004410744 2
      vertex -9.745379999279976 2.9811000004410744 1.2
      vertex -10.949759997427464 2.9811000004410744 1.2
    endloop
  endfacet
  facet normal 0 1 0
    outer loop
      vertex -10.949759997427464 2.9811000004410744 2
      vertex -9.745379999279976 2.9811000004410744 2
      vertex -10.949759997427464 2.9811000004410744 1.2
    endloop
  endfacet
  facet normal -1 0 0
    outer loop
      vertex -4.943879999220371 2.9811000004410744 2
      vertex -4.943879999220371 2.9811000004410744 1.2
      vertex -4.943879999220371 -2.9836800023913383 1.2
    endloop
  endfacet
  facet normal 0.7189726020000495 -0.6950384144587106 0
    outer loop
      vertex -7.938840001821518 0.6578399986028671 2
      vertex -7.938840001821518 0.6578399986028671 1.2
      vertex -5.692919999361038 2.9811000004410744 1.2
    endloop
  endfacet
  facet normal 1 0 0
    outer loop
      vertex -3.7395600005984306 0.6334199979901314 2
      vertex -3.7395600005984306 0.6334199979901314 1.2
      vertex -3.7395600005984306 2.9811000004410744 1.2
    endloop
  endfacet
  facet normal 0 1 0
    outer loop
      vertex -1.3796399980783463 0.6334199979901314 2
      vertex -1.3796399980783463 0.6334199979901314 1.2
      vertex -3.7395600005984306 0.6334199979901314 1.2
    endloop
  endfacet
  facet normal 0 0 1
    outer loop
      vertex -4.943879999220371 -2.9836800023913383 2
      vertex -3.7395600005984306 0.6334199979901314 2
      vertex -4.943879999220371 2.9811000004410744 2
    endloop
  endfacet
  facet normal 0 1 0
    outer loop
      vertex -3.7395600005984306 0.6334199979901314 2
      vertex -1.3796399980783463 0.6334199979901314 2
      vertex -3.7395600005984306 0.6334199979901314 1.2
    endloop
  endfacet
  facet normal 1 0 0
    outer loop
      vertex -0.17531999945640564 -2.9836800023913383 2
      vertex -0.17531999945640564 2.9811000004410744 1.2
      vertex -0.17531999945640564 2.9811000004410744 2
    endloop
  endfacet
  facet normal 0 0 1
    outer loop
      vertex -3.7395600005984306 -0.3756000027060509 2
      vertex -1.3796399980783463 0.6334199979901314 2
      vertex -3.7395600005984306 0.6334199979901314 2
    endloop
  endfacet
  facet normal 0 0 1
    outer loop
      vertex -0.17531999945640564 -2.9836800023913383 2
      vertex -0.17531999945640564 2.9811000004410744 2
      vertex -1.3796399980783463 0.6334199979901314 2
    endloop
  endfacet
  facet normal -1 0 0
    outer loop
      vertex -1.3796399980783463 0.6334199979901314 2
      vertex -1.3796399980783463 2.9811000004410744 2
      vertex -1.3796399980783463 0.6334199979901314 1.2
    endloop
  endfacet
  facet normal 0 1 0
    outer loop
      vertex -5.692919999361038 2.9811000004410744 2
      vertex -5.692919999361038 2.9811000004410744 1.2
      vertex -7.312260001897812 2.9811000004410744 1.2
    endloop
  endfacet
  facet normal 0 1 0
    outer loop
      vertex -3.7395600005984306 2.9811000004410744 2
      vertex -3.7395600005984306 2.9811000004410744 1.2
      vertex -4.943879999220371 2.9811000004410744 1.2
    endloop
  endfacet
  facet normal -1 0 0
    outer loop
      vertex -1.3796399980783463 2.9811000004410744 2
      vertex -1.3796399980783463 2.9811000004410744 1.2
      vertex -1.3796399980783463 0.6334199979901314 1.2
    endloop
  endfacet
  facet normal 0 1 0
    outer loop
      vertex -0.17531999945640564 2.9811000004410744 2
      vertex -0.17531999945640564 2.9811000004410744 1.2
      vertex -1.3796399980783463 2.9811000004410744 1.2
    endloop
  endfacet
  facet normal 0.7189726020000495 -0.6950384144587106 -1.7178876582550966e-16
    outer loop
      vertex -7.938840001821518 0.6578399986028671 2
      vertex -5.692919999361038 2.9811000004410744 1.2
      vertex -5.692919999361038 2.9811000004410744 2
    endloop
  endfacet
  facet normal 0 1 0
    outer loop
      vertex -7.312260001897812 2.9811000004410744 2
      vertex -5.692919999361038 2.9811000004410744 2
      vertex -7.312260001897812 2.9811000004410744 1.2
    endloop
  endfacet
  facet normal 1 0 0
    outer loop
      vertex -3.7395600005984306 0.6334199979901314 2
      vertex -3.7395600005984306 2.9811000004410744 1.2
      vertex -3.7395600005984306 2.9811000004410744 2
    endloop
  endfacet
  facet normal 0 1 0
    outer loop
      vertex -4.943879999220371 2.9811000004410744 2
      vertex -3.7395600005984306 2.9811000004410744 2
      vertex -4.943879999220371 2.9811000004410744 1.2
    endloop
  endfacet
  facet normal 0 0 1
    outer loop
      vertex -7.938840001821518 0.6578399986028671 2
      vertex -5.692919999361038 2.9811000004410744 2
      vertex -7.312260001897812 2.9811000004410744 2
    endloop
  endfacet
  facet normal 0 0 1
    outer loop
      vertex -3.7395600005984306 0.6334199979901314 2
      vertex -3.7395600005984306 2.9811000004410744 2
      vertex -4.943879999220371 2.9811000004410744 2
    endloop
  endfacet
  facet normal 0 1 0
    outer loop
      vertex -1.3796399980783463 2.9811000004410744 2
      vertex -0.17531999945640564 2.9811000004410744 2
      vertex -1.3796399980783463 2.9811000004410744 1.2
    endloop
  endfacet
  facet normal 0 0 1
    outer loop
      vertex -1.3796399980783463 0.6334199979901314 2
      vertex -0.17531999945640564 2.9811000004410744 2
      vertex -1.3796399980783463 2.9811000004410744 2
    endloop
  endfacet
  facet normal 0 -1 0
    outer loop
      vertex 2.412780001759529 -2.9836800023913383 2
      vertex 2.412780001759529 -2.9836800023913383 1.2
      vertex 3.6171599999070168 -2.9836800023913383 1.2
    endloop
  endfacet
  facet normal 0 -1 0
    outer loop
      vertex 6.172679997980595 -2.9836800023913383 2
      vertex 6.172679997980595 -2.9836800023913383 1.2
      vertex 7.291560001671314 -2.9836800023913383 1.2
    endloop
  endfacet
  facet normal 0 -1 0
    outer loop
      vertex 2.412780001759529 -2.9836800023913383 2
      vertex 3.6171599999070168 -2.9836800023913383 1.2
      vertex 3.6171599999070168 -2.9836800023913383 2
    endloop
  endfacet
  facet normal 0 -1 0
    outer loop
      vertex 6.172679997980595 -2.9836800023913383 2
      vertex 7.291560001671314 -2.9836800023913383 1.2
      vertex 7.291560001671314 -2.9836800023913383 2
    endloop
  endfacet
  facet normal 1 0 0
    outer loop
      vertex 3.6171599999070168 -2.9836800023913383 2
      vertex 3.6171599999070168 -2.9836800023913383 1.2
      vertex 3.6171599999070168 1.9720799997448921 1.2
    endloop
  endfacet
  facet normal 1 0 0
    outer loop
      vertex 7.291560001671314 -2.9836800023913383 2
      vertex 7.291560001671314 -2.9836800023913383 1.2
      vertex 7.291560001671314 0.9060600027441978 1.2
    endloop
  endfacet
  facet normal -1 0 0
    outer loop
      vertex 2.412780001759529 -2.9836800023913383 2
      vertex 2.412780001759529 1.9720799997448921 2
      vertex 2.412780001759529 -2.9836800023913383 1.2
    endloop
  endfacet
  facet normal 0 0 1
    outer loop
      vertex 2.412780001759529 -2.9836800023913383 2
      vertex 3.6171599999070168 -2.9836800023913383 2
      vertex 2.412780001759529 1.9720799997448921 2
    endloop
  endfacet
  facet normal 0 0 1
    outer loop
      vertex 6.172679997980595 -2.9836800023913383 2
      vertex 7.291560001671314 -2.9836800023913383 2
      vertex 7.291560001671314 0.9060600027441978 2
    endloop
  endfacet
  facet normal -1 0 0
    outer loop
      vertex 6.172679997980595 -2.9836800023913383 2
      vertex 6.172679997980595 2.9811000004410744 2
      vertex 6.172679997980595 -2.9836800023913383 1.2
    endloop
  endfacet
  facet normal 1 0 0
    outer loop
      vertex 7.291560001671314 -2.9836800023913383 2
      vertex 7.291560001671314 0.9060600027441978 1.2
      vertex 7.291560001671314 0.9060600027441978 2
    endloop
  endfacet
  facet normal 0 -1 0
    outer loop
      vertex 9.696180000901222 -2.9836800023913383 2
      vertex 9.696180000901222 -2.9836800023913383 1.2
      vertex 10.904579997062683 -2.9836800023913383 1.2
    endloop
  endfacet
  facet normal 0 -1 0
    outer loop
      vertex 9.696180000901222 -2.9836800023913383 2
      vertex 10.904579997062683 -2.9836800023913383 1.2
      vertex 10.904579997062683 -2.9836800023913383 2
    endloop
  endfacet
  facet normal 0 0 1
    outer loop
      vertex 9.696180000901222 -2.9836800023913383 2
      vertex 10.904579997062683 -2.9836800023913383 2
      vertex 9.785700000822544 -1.002180002629757 2
    endloop
  endfacet
  facet normal -0.8505893417710769 -0.5258305541383519 0
    outer loop
      vertex 7.291560001671314 0.9060600027441978 2
      vertex 7.291560001671314 0.9060600027441978 1.2
      vertex 9.696180000901222 -2.9836800023913383 1.2
    endloop
  endfacet
  facet normal 1 0 0
    outer loop
      vertex 10.904579997062683 -2.9836800023913383 2
      vertex 10.904579997062683 -2.9836800023913383 1.2
      vertex 10.904579997062683 2.9811000004410744 1.2
    endloop
  endfacet
  facet normal -0.8505893417710769 -0.5258305541383519 0
    outer loop
      vertex 9.696180000901222 -2.9836800023913383 2
      vertex 7.291560001671314 0.9060600027441978 2
      vertex 9.696180000901222 -2.9836800023913383 1.2
    endloop
  endfacet
  facet normal 0 0 1
    outer loop
      vertex 9.696180000901222 -2.9836800023913383 2
      vertex 9.785700000822544 -1.002180002629757 2
      vertex 7.291560001671314 0.9060600027441978 2
    endloop
  endfacet
  facet normal 0 0 1
    outer loop
      vertex 10.904579997062683 -2.9836800023913383 2
      vertex 10.904579997062683 2.9811000004410744 2
      vertex 9.785700000822544 -1.002180002629757 2
    endloop
  endfacet
  facet normal -1 0 0
    outer loop
      vertex 2.412780001759529 1.9720799997448921 2
      vertex 2.412780001759529 1.9720799997448921 1.2
      vertex 2.412780001759529 -2.9836800023913383 1.2
    endloop
  endfacet
  facet normal 0 -1 0
    outer loop
      vertex 0.6428999975323677 1.9720799997448921 2
      vertex 0.6428999975323677 1.9720799997448921 1.2
      vertex 2.412780001759529 1.9720799997448921 1.2
    endloop
  endfacet
  facet normal -1 0 0
    outer loop
      vertex 6.172679997980595 2.9811000004410744 2
      vertex 6.172679997980595 2.9811000004410744 1.2
      vertex 6.172679997980595 -2.9836800023913383 1.2
    endloop
  endfacet
  facet normal 0 -1 0
    outer loop
      vertex 3.6171599999070168 1.9720799997448921 2
      vertex 3.6171599999070168 1.9720799997448921 1.2
      vertex 5.382959999144077 1.9720799997448921 1.2
    endloop
  endfacet
  facet normal 1 0 0
    outer loop
      vertex 3.6171599999070168 -2.9836800023913383 2
      vertex 3.6171599999070168 1.9720799997448921 1.2
      vertex 3.6171599999070168 1.9720799997448921 2
    endloop
  endfacet
  facet normal 0 0 1
    outer loop
      vertex 3.6171599999070168 -2.9836800023913383 2
      vertex 3.6171599999070168 1.9720799997448921 2
      vertex 2.412780001759529 1.9720799997448921 2
    endloop
  endfacet
  facet normal 0 -1 0
    outer loop
      vertex 0.6428999975323677 1.9720799997448921 2
      vertex 2.412780001759529 1.9720799997448921 1.2
      vertex 2.412780001759529 1.9720799997448921 2
    endloop
  endfacet
  facet normal 0 0 1
    outer loop
      vertex 6.172679997980595 -2.9836800023913383 2
      vertex 7.291560001671314 0.9060600027441978 2
      vertex 6.172679997980595 2.9811000004410744 2
    endloop
  endfacet
  facet normal 0 -1 0
    outer loop
      vertex 3.6171599999070168 1.9720799997448921 2
      vertex 5.382959999144077 1.9720799997448921 1.2
      vertex 5.382959999144077 1.9720799997448921 2
    endloop
  endfacet
  facet normal -1 0 0
    outer loop
      vertex 0.6428999975323677 2.9811000004410744 2
      vertex 0.6428999975323677 2.9811000004410744 1.2
      vertex 0.6428999975323677 1.9720799997448921 1.2
    endloop
  endfacet
  facet normal 1 0 0
    outer loop
      vertex 5.382959999144077 1.9720799997448921 2
      vertex 5.382959999144077 1.9720799997448921 1.2
      vertex 5.382959999144077 2.9811000004410744 1.2
    endloop
  endfacet
  facet normal 0 1 0
    outer loop
      vertex 5.382959999144077 2.9811000004410744 2
      vertex 5.382959999144077 2.9811000004410744 1.2
      vertex 0.6428999975323677 2.9811000004410744 1.2
    endloop
  endfacet
  facet normal 0 1 0
    outer loop
      vertex 7.344480000436306 2.9811000004410744 2
      vertex 7.344480000436306 2.9811000004410744 1.2
      vertex 6.172679997980595 2.9811000004410744 1.2
    endloop
  endfacet
  facet normal -1 0 0
    outer loop
      vertex 0.6428999975323677 1.9720799997448921 2
      vertex 0.6428999975323677 2.9811000004410744 2
      vertex 0.6428999975323677 1.9720799997448921 1.2
    endloop
  endfacet
  facet normal 0 1 0
    outer loop
      vertex 0.6428999975323677 2.9811000004410744 2
      vertex 5.382959999144077 2.9811000004410744 2
      vertex 0.6428999975323677 2.9811000004410744 1.2
    endloop
  endfacet
  facet normal 0 0 1
    outer loop
      vertex 0.6428999975323677 1.9720799997448921 2
      vertex 2.412780001759529 1.9720799997448921 2
      vertex 0.6428999975323677 2.9811000004410744 2
    endloop
  endfacet
  facet normal 0 0 1
    outer loop
      vertex 2.412780001759529 1.9720799997448921 2
      vertex 3.6171599999070168 1.9720799997448921 2
      vertex 0.6428999975323677 2.9811000004410744 2
    endloop
  endfacet
  facet normal 0 0 1
    outer loop
      vertex 0.6428999975323677 2.9811000004410744 2
      vertex 3.6171599999070168 1.9720799997448921 2
      vertex 5.382959999144077 2.9811000004410744 2
    endloop
  endfacet
  facet normal 1 0 0
    outer loop
      vertex 5.382959999144077 1.9720799997448921 2
      vertex 5.382959999144077 2.9811000004410744 1.2
      vertex 5.382959999144077 2.9811000004410744 2
    endloop
  endfacet
  facet normal 0 1 0
    outer loop
      vertex 6.172679997980595 2.9811000004410744 2
      vertex 7.344480000436306 2.9811000004410744 2
      vertex 6.172679997980595 2.9811000004410744 1.2
    endloop
  endfacet
  facet normal 0 0 1
    outer loop
      vertex 3.6171599999070168 1.9720799997448921 2
      vertex 5.382959999144077 1.9720799997448921 2
      vertex 5.382959999144077 2.9811000004410744 2
    endloop
  endfacet
  facet normal 0 0 1
    outer loop
      vertex 7.291560001671314 0.9060600027441978 2
      vertex 7.344480000436306 2.9811000004410744 2
      vertex 6.172679997980595 2.9811000004410744 2
    endloop
  endfacet
  facet normal 0.8526150957842544 0.5225394707013113 0
    outer loop
      vertex 9.785700000822544 -1.002180002629757 2
      vertex 9.785700000822544 -1.002180002629757 1.2
      vertex 7.344480000436306 2.9811000004410744 1.2
    endloop
  endfacet
  facet normal -1 0 0
    outer loop
      vertex 9.785700000822544 2.9811000004410744 2
      vertex 9.785700000822544 2.9811000004410744 1.2
      vertex 9.785700000822544 -1.002180002629757 1.2
    endloop
  endfacet
  facet normal -1 0 0
    outer loop
      vertex 9.785700000822544 -1.002180002629757 2
      vertex 9.785700000822544 2.9811000004410744 2
      vertex 9.785700000822544 -1.002180002629757 1.2
    endloop
  endfacet
  facet normal 1 0 0
    outer loop
      vertex 10.904579997062683 -2.9836800023913383 2
      vertex 10.904579997062683 2.9811000004410744 1.2
      vertex 10.904579997062683 2.9811000004410744 2
    endloop
  endfacet
  facet normal 0 0 1
    outer loop
      vertex 9.785700000822544 -1.002180002629757 2
      vertex 7.344480000436306 2.9811000004410744 2
      vertex 7.291560001671314 0.9060600027441978 2
    endloop
  endfacet
  facet normal 0.8526150957842544 0.5225394707013113 -2.3764156919747175e-16
    outer loop
      vertex 9.785700000822544 -1.002180002629757 2
      vertex 7.344480000436306 2.9811000004410744 1.2
      vertex 7.344480000436306 2.9811000004410744 2
    endloop
  endfacet
  facet normal 0 0 1
    outer loop
      vertex 9.785700000822544 -1.002180002629757 2
      vertex 10.904579997062683 2.9811000004410744 2
      vertex 9.785700000822544 2.9811000004410744 2
    endloop
  endfacet
  facet normal 0 1 0
    outer loop
      vertex 10.904579997062683 2.9811000004410744 2
      vertex 10.904579997062683 2.9811000004410744 1.2
      vertex 9.785700000822544 2.9811000004410744 1.2
    endloop
  endfacet
  facet normal 0 1 0
    outer loop
      vertex 9.785700000822544 2.9811000004410744 2
      vertex 10.904579997062683 2.9811000004410744 2
      vertex 9.785700000822544 2.9811000004410744 1.2
    endloop
  endfacet
endsolid OpenSCAD_Model
